<svg id="Layer_3" enable-background="new 0 0 500 500" height="512" viewBox="0 0 500 500" width="512" xmlns="http://www.w3.org/2000/svg"><g><g><g><path d="m376.227 23.436v453.127c0 9.906-8.03 17.936-17.936 17.936h-216.581c-9.906 0-17.936-8.03-17.936-17.936v-453.127c0-9.906 8.03-17.936 17.936-17.936h216.58c9.906 0 17.937 8.03 17.937 17.936z" fill="#e2e2e2"/></g><g><path d="m326.941 121.574c.728 3.886-3.036 7.286-7.65 6.8h-138.613c-.91.122-1.822.061-2.671-.182-2.914-.668-5.04-2.914-5.04-5.646 0-.303.061-.607.122-.971 2.732-14.208 4.129-28.597 4.189-43.047-.06-14.45-1.457-28.84-4.189-43.108-.061-.304-.122-.607-.122-.972 0-3.46 3.583-6.193 7.711-5.768l29.022 3.157c26.775 2.793 53.854 2.793 80.63 0l5.039-.546 23.922-2.611c4.614-.486 8.378 2.853 7.65 6.739-2.733 14.268-4.129 28.657-4.19 43.108.061 14.45 1.457 28.839 4.19 43.047z" fill="#94d6e4"/></g><g><path d="m152.369 128.398h195.262v334.955h-195.262z" fill="#c6f0f7"/></g><g><path d="m347.631 128.398s-6.358 320.571-195.262 334.955h195.262z" fill="#a1dde5"/></g></g><g><path d="m358.29 0h-216.58c-12.923 0-23.437 10.514-23.437 23.437v453.127c0 12.923 10.514 23.437 23.437 23.437h216.58c12.923 0 23.437-10.514 23.437-23.437v-453.127c0-12.923-10.514-23.437-23.437-23.437zm12.437 476.564c0 6.857-5.579 12.437-12.437 12.437h-216.58c-6.857 0-12.437-5.579-12.437-12.437v-453.127c0-6.857 5.579-12.437 12.437-12.437h216.58c6.857 0 12.437 5.579 12.437 12.437z"/><path d="m347.631 122.899h-15.119c.024-.777-.029-1.562-.18-2.345 0 0 0-.001 0-.002-2.654-13.739-4.028-27.891-4.085-42.018.057-14.171 1.431-28.322 4.085-42.064.646-3.352-.343-6.753-2.713-9.331-2.672-2.907-6.746-4.381-10.902-3.934l-28.992 3.132c-26.353 2.796-53.077 2.795-79.42.001l-29.065-3.134c-3.73-.397-7.401.747-10.068 3.144-2.384 2.143-3.65 5.021-3.697 8.102-.058 3.769 4.243 29.92 4.299 44.041-.056 14.164-4.285 44.299-4.281 44.408h-15.122c-3.037 0-5.5 2.462-5.5 5.5v334.955c0 3.038 2.463 5.5 5.5 5.5h195.262c3.037 0 5.5-2.462 5.5-5.5v-334.955c-.002-3.038-2.465-5.5-5.502-5.5zm-169.113-88.366c.205-.188 30.617 2.743 30.617 2.743 27.124 2.877 54.629 2.877 81.761-.001 0 0 30.408-2.91 30.604-2.718-2.763 14.357-4.193 29.138-4.252 43.977.059 14.795 1.489 29.577 4.252 43.933-.194.192-1.996.384-2.191.384h-138.654c-.195 0-1.931-.171-2.138-.36 2.766-14.372 4.197-29.16 4.255-44-.057-14.798-1.489-29.586-4.254-43.958zm163.613 423.32h-184.262v-323.954h184.262z"/></g></g></svg>